<?xml version="1.0" encoding="UTF-8" standalone="no"?>
<svg xmlns="http://www.w3.org/2000/svg" id="svg923" version="1.1" height="1000" width="1000" viewbox="0 0 1000 1000">
   <circle r="500" cy="500" cx="500" style="fill:rgb(33, 33, 33);stroke:none" />
   <path style="fill:rgb(227, 227, 227);stroke:none"
      d="m 356.22887,255.95295 c -2.30971,0.11605 -4.37428,1.50411 -5.38774,3.62224 l -18.59616,38.87892 c -1.01917,2.12956 -0.81293,4.65671 0.53742,6.58549 l 52.84935,75.47406 c -91.78795,-0.31803 -150.88824,-0.59311 -150.88824,-0.59311 -2.56798,-0.008 -4.88714,1.56309 -5.87388,3.97902 l -20.5965,50.43649 c -1.73205,4.24682 1.32059,8.92592 5.83374,8.94198 0,0 116.96068,0.43699 216.02945,0.7908 l 33.49721,47.83683 -83.83999,63.3393 c -31.46702,-0.13364 -82.24215,-0.22467 -90.65493,-0.32496 -28.26508,-0.33699 -49.89208,7.68966 -65.04087,23.21964 -7.60464,7.79601 -13.82179,17.86663 -17.51238,30.55504 -3.75574,12.91229 -4.37796,28.28884 -1.45174,41.76717 5.71557,26.32647 21.89721,41.30071 40.39241,45.85072 18.59458,4.57446 40.73157,-0.74331 65.0498,-17.65219 l 0.006,-0.006 c 0.19917,-0.1389 0.39592,-0.28191 0.59097,-0.42948 l 0.006,-0.004 78.85811,-59.57844 c 46.18443,0.20003 104.39946,0.41499 162.77614,0.62491 l 85.48354,122.07937 c 2.79307,3.98846 8.75587,3.48202 10.86244,-0.92259 l 18.59394,-38.87665 c 1.01915,-2.12957 0.81293,-4.65673 -0.53744,-6.58549 l -52.84659,-75.47044 c 88.11651,0.3145 130.32741,0.58627 130.32741,0.58627 2.56985,0.0104 4.8922,-1.55939 5.88057,-3.97672 l 20.59874,-50.43649 c 1.73383,-4.2466 -1.31789,-8.92726 -5.83151,-8.94426 0,0 -97.01062,-0.43652 -195.48426,-0.7908 l -33.49495,-47.83685 83.83998,-63.34156 c 31.46701,0.13366 82.24217,0.22467 90.65492,0.32495 28.26472,0.33699 49.89384,-7.68688 65.04311,-23.21735 7.60463,-7.79601 13.82178,-17.86665 17.51237,-30.55505 3.75602,-12.91324 4.37558,-28.2917 1.44953,-41.76943 -5.71565,-26.32664 -21.89828,-41.29642 -40.39243,-45.84619 -4.64852,-1.14357 -9.54618,-1.67519 -14.63788,-1.55434 -15.27436,0.36254 -32.17096,6.52257 -50.40969,19.20428 -0.20182,0.14002 -0.39954,0.28589 -0.59319,0.43176 l -0.006,0.004 -78.86242,59.58134 c -46.18518,-0.20019 -104.40031,-0.41548 -162.77838,-0.62507 L 361.70358,258.6526 c -1.25475,-1.79112 -3.31775,-2.8084 -5.47471,-2.69965 z m 384.38923,109.5877 c 2.6352,-0.0782 4.89468,0.18276 6.76587,0.64309 2.63076,0.64719 4.15068,1.5433 5.29185,2.38832 -0.25496,0.28894 -0.33464,0.45943 -0.66232,0.79535 -5.08448,5.21244 -18.52451,12.61628 -40.80497,12.35063 -0.8247,-0.0104 -4.81296,-0.0185 -7.53303,-0.0272 l 3.95384,-2.98597 c 13.87044,-9.60925 25.12102,-12.93095 32.98876,-13.16415 z m -248.92643,78.74861 c 12.17642,0.0438 24.29683,0.0871 34.80398,0.12495 l -22.7061,17.15226 -12.09788,-17.27725 z m 4.51803,94.1375 12.10011,17.27951 c -12.17811,-0.0439 -24.29824,-0.0871 -34.80622,-0.12497 L 496.2097,538.42677 Z M 288.79072,618.2775 c 0.82489,0.0105 4.8141,0.0186 7.53525,0.0273 l -3.96721,2.99731 c -18.50513,12.81617 -32.279,14.34833 -39.7435,12.51198 -2.63137,-0.64734 -4.15126,-1.54333 -5.29185,-2.38833 0.25524,-0.28926 0.33641,-0.45894 0.66457,-0.79533 5.08547,-5.21345 18.52266,-12.61854 40.80274,-12.35291 z" />
</svg>