<svg width="230.842" height="247.477" viewBox="0 0 216.414 232.01" xmlns="http://www.w3.org/2000/svg"><path d="M107.866 0C78.204.243 49.673 3.454 33.045 11.09c0 0-32.977 14.752-32.977 65.082 0 11.525-.224 25.305.14 39.919 1.198 49.22 9.024 97.728 54.531 109.773 20.983 5.554 38.999 6.718 53.507 5.92 26.312-1.459 41.082-9.39 41.082-9.39l-.868-19.09s-18.802 5.928-39.919 5.206c-20.921-.718-43.008-2.256-46.391-27.942-.313-2.257-.47-4.67-.47-7.204 0 0 20.539 5.02 46.566 6.213 15.915.73 30.84-.932 45.998-2.741 29.07-3.471 54.382-21.383 57.563-37.75 5.013-25.78 4.6-62.914 4.6-62.914 0-50.33-32.976-65.081-32.976-65.081C166.805 3.454 138.256.243 108.594 0h-.728zm-33.57 39.326c12.356 0 21.71 4.748 27.897 14.247l6.015 10.082 6.015-10.082c6.185-9.499 15.54-14.247 27.896-14.247 10.678 0 19.281 3.753 25.851 11.076 6.369 7.322 9.54 17.22 9.54 29.676v60.94h-24.145v-59.15c0-12.468-5.246-18.797-15.74-18.797-11.602 0-17.416 7.506-17.416 22.351V117.8H96.207V85.422c0-14.845-5.816-22.351-17.419-22.351-10.493 0-15.74 6.329-15.74 18.797v59.15H38.905v-60.94c0-12.455 3.172-22.354 9.542-29.676 6.569-7.323 15.172-11.076 25.85-11.076z"/></svg>