<?xml version="1.0" encoding="UTF-8" standalone="no"?>
<svg
   xmlns:dc="http://purl.org/dc/elements/1.1/"
   xmlns:cc="http://creativecommons.org/ns#"
   xmlns:rdf="http://www.w3.org/1999/02/22-rdf-syntax-ns#"
   xmlns:svg="http://www.w3.org/2000/svg"
   xmlns="http://www.w3.org/2000/svg"
   xmlns:sodipodi="http://sodipodi.sourceforge.net/DTD/sodipodi-0.dtd"
   xmlns:inkscape="http://www.inkscape.org/namespaces/inkscape"
   viewbox="0 0 1000 1000"
   width="1000"
   height="1000"
   version="1.1"
   id="svg4"
   sodipodi:docname="zeropaper-work.svg"
   inkscape:version="0.92.5 (2060ec1f9f, 2020-04-08)">
  <metadata
     id="metadata10">
    <rdf:RDF>
      <cc:Work
         rdf:about="">
        <dc:format>image/svg+xml</dc:format>
        <dc:type
           rdf:resource="http://purl.org/dc/dcmitype/StillImage" />
        <dc:title></dc:title>
      </cc:Work>
    </rdf:RDF>
  </metadata>
  <defs
     id="defs8" />
  <sodipodi:namedview
     pagecolor="#ffffff"
     bordercolor="#666666"
     borderopacity="1"
     objecttolerance="10"
     gridtolerance="10"
     guidetolerance="10"
     inkscape:pageopacity="0"
     inkscape:pageshadow="2"
     inkscape:window-width="1920"
     inkscape:window-height="1015"
     id="namedview6"
     showgrid="true"
     inkscape:snap-midpoints="true"
     inkscape:snap-smooth-nodes="true"
     inkscape:snap-intersection-paths="true"
     inkscape:object-paths="true"
     inkscape:snap-bbox="true"
     inkscape:bbox-paths="false"
     inkscape:bbox-nodes="false"
     inkscape:snap-bbox-edge-midpoints="false"
     inkscape:snap-bbox-midpoints="false"
     inkscape:snap-object-midpoints="true"
     inkscape:snap-center="true"
     inkscape:zoom="0.79413715"
     inkscape:cx="304.05062"
     inkscape:cy="498.16398"
     inkscape:window-x="0"
     inkscape:window-y="0"
     inkscape:window-maximized="1"
     inkscape:current-layer="layer4"
     showguides="true"
     inkscape:guide-bbox="true">
    <sodipodi:guide
       position="500,500.04675"
       orientation="0,1"
       id="guide853"
       inkscape:locked="false" />
    <sodipodi:guide
       position="500,500.04675"
       orientation="1,0"
       id="guide855"
       inkscape:locked="false" />
    <sodipodi:guide
       position="281.77321,811.69985"
       orientation="0,1"
       id="guide857"
       inkscape:locked="false" />
    <sodipodi:guide
       position="281.77321,811.69985"
       orientation="1,0"
       id="guide859"
       inkscape:locked="false" />
  </sodipodi:namedview>
  <g
     inkscape:groupmode="layer"
     id="layer2"
     inkscape:label="fat"
     sodipodi:insensitive="true"
     style="display:none">
    <path
       style="fill:#ffffff;stroke:#000000;stroke-width:5"
       d="m 266.70312,103.98572 c -3.74796,0.18832 -7.09814,2.44071 -8.74267,5.8778 l -30.17593,63.08868 c -1.6538,3.45563 -1.31913,7.55642 0.87208,10.68625 l 85.75844,122.47149 C 165.47107,305.59387 69.569245,305.1475 69.569245,305.1475 c -4.167046,-0.0128 -7.930344,2.53642 -9.531525,6.45674 l -33.421866,81.8431 c -2.810592,6.89131 2.142921,14.48407 9.466394,14.51012 0,0 189.791662,0.70911 350.550192,1.28323 l 54.3558,77.62465 -136.04684,102.78045 c -51.06141,-0.21686 -133.45404,-0.36456 -147.10542,-0.52731 -45.86564,-0.54683 -80.959694,12.47798 -105.541589,37.67843 -12.340023,12.65055 -22.428571,28.99212 -28.417268,49.58155 -6.094431,20.95273 -7.104112,45.9042 -2.355743,67.77544 9.27464,42.71987 35.532528,67.0185 65.544627,74.40179 30.173353,7.42297 66.094963,-1.20616 105.556063,-28.64415 l 0.0103,-0.0102 c 0.32319,-0.22539 0.64245,-0.45746 0.95895,-0.69691 l 0.0103,-0.007 127.96276,-96.67772 c 74.94331,0.3246 169.40862,0.67341 264.13625,1.01404 l 138.71384,198.09776 c 4.53229,6.47206 14.20811,5.65025 17.62644,-1.49709 l 30.17232,-63.085 c 1.65377,-3.45564 1.31913,-7.55646 -0.87211,-10.68625 L 685.58716,693.89756 c 142.98634,0.51034 211.4818,0.95134 211.4818,0.95134 4.1701,0.0169 7.93856,-2.53042 9.54238,-6.45301 l 33.4255,-81.8431 c 2.81349,-6.89095 -2.13853,-14.48624 -9.46276,-14.51383 0,0 -157.41879,-0.70833 -317.2116,-1.28322 L 559.01034,513.13106 695.05718,410.34694 c 51.0614,0.21688 133.45406,0.36456 147.1054,0.52729 45.86507,0.54683 80.96256,-12.47347 105.54522,-37.67471 12.34,-12.65056 22.42855,-28.99214 28.41726,-49.58156 6.09488,-20.95428 7.10024,-45.90885 2.35214,-67.77911 -9.27476,-42.72015 -35.53425,-67.01155 -65.54464,-74.39444 -7.54314,-1.85568 -15.49056,-2.71833 -23.75283,-2.52222 -24.78566,0.58828 -52.2037,10.58415 -81.79962,31.1627 -0.3275,0.22722 -0.64834,0.46392 -0.96258,0.70062 l -0.0103,0.007 -127.96976,96.68242 c -74.94452,-0.32484 -169.41,-0.67419 -264.13989,-1.0143 L 275.5869,108.36643 c -2.03607,-2.90644 -5.38369,-4.55718 -8.88378,-4.38071 z m 623.74699,177.82757 c 4.27613,-0.1269 7.94259,0.29656 10.97896,1.04353 4.26892,1.0502 6.7353,2.50432 8.58707,3.87552 -0.41373,0.46886 -0.54302,0.74552 -1.07475,1.29061 -8.25056,8.45821 -30.05965,20.4724 -66.21408,20.04133 -1.33824,-0.0169 -7.80997,-0.0301 -12.22382,-0.0442 l 6.41588,-4.84533 c 22.50752,-15.59289 40.7638,-20.983 53.53074,-21.36141 z M 486.5181,409.59837 c 19.75863,0.071 39.42639,0.14134 56.4763,0.20276 L 506.14929,437.63404 486.5181,409.5983 Z m 7.33139,152.75657 19.63481,28.0394 c -19.76138,-0.0712 -39.42867,-0.14135 -56.47993,-0.20278 l 36.84512,-27.8366 z M 157.27147,691.92846 c 1.33855,0.0171 7.81183,0.0302 12.22743,0.0443 l -6.43759,4.86373 c -30.0282,20.79675 -52.37901,23.28298 -64.491623,20.30315 -4.26992,-1.05044 -6.73624,-2.50436 -8.58706,-3.87554 0.41417,-0.46938 0.54589,-0.74472 1.07838,-1.29058 8.25218,-8.45984 30.056663,-20.47606 66.210463,-20.04502 z"
       id="path2"
       inkscape:connector-curvature="0" />
  </g>
  <g
     inkscape:groupmode="layer"
     id="layer4"
     inkscape:label="slim 1"
     style="display:inline">
    <path
       inkscape:connector-curvature="0"
       style="fill:none;stroke:#000000;stroke-width:25;stroke-linecap:round;font-variant-east_asian:normal;opacity:1;vector-effect:none;fill-opacity:1;stroke-linejoin:miter;stroke-miterlimit:4;stroke-dasharray:none;stroke-dashoffset:0;stroke-opacity:1"
       d="m 89.56924,359.13673 732.76563,0 c 80.33042,0 115.11948,-41.84539 100.05182,-85.38169 -15.06766,-43.5363 -73.20636,-37.60765 -126.5162,2.66796 L 499.97127,499.97496 281.77321,188.30015"
       id="path1032"
       sodipodi:nodetypes="cszscc" />
    <path
       inkscape:connector-curvature="0"
       style="display:inline;opacity:1;vector-effect:none;fill:none;fill-opacity:1;stroke:#000000;stroke-width:25;stroke-linecap:round;stroke-linejoin:miter;stroke-miterlimit:4;stroke-dasharray:none;stroke-dashoffset:0;stroke-opacity:1"
       d="M 910.3581,640.79148 H 177.59247 c -80.330419,0 -115.119479,41.84539 -100.051819,85.38169 15.06766,43.5363 73.206359,37.60765 126.516199,-2.66796 L 499.95607,499.95325 718.15413,811.62806"
       id="path1032-3"
       sodipodi:nodetypes="cszscc" />
  </g>
  <g
     inkscape:groupmode="layer"
     id="layer1"
     inkscape:label="construction"
     style="display:inline"
     sodipodi:insensitive="true">
    <path
       style="fill:none;stroke:#ff0000;stroke-width:1px;stroke-linecap:butt;stroke-linejoin:miter;stroke-opacity:1"
       d="m 169.4989,691.97276 152.06548,0.54695"
       id="path824"
       inkscape:connector-curvature="0" />
    <path
       style="fill:none;stroke:#ff0000;stroke-width:1px;stroke-linecap:butt;stroke-linejoin:miter;stroke-opacity:1"
       d="m 678.43747,307.47493 152.06602,0.54515"
       id="path826"
       inkscape:connector-curvature="0" />
    <path
       style="fill:none;stroke:#ff0000;stroke-width:1px;stroke-linecap:butt;stroke-linejoin:miter;stroke-opacity:1"
       d="M 695.05718,410.34694 830.50349,308.02008"
       id="path828"
       inkscape:connector-curvature="0" />
    <path
       style="fill:none;stroke:#ff0000;stroke-width:1px;stroke-linecap:butt;stroke-linejoin:miter;stroke-opacity:1"
       d="M 304.9414,589.64579 169.4989,691.97276"
       id="path830"
       inkscape:connector-curvature="0" />
    <path
       style="fill:none;stroke:#ff0000;stroke-width:1px;stroke-linecap:butt;stroke-linejoin:miter;stroke-opacity:1"
       d="m 314.41504,306.10994 99.88254,0.35069"
       id="path832"
       inkscape:connector-curvature="0" />
    <path
       style="fill:none;stroke:#ff0000;stroke-width:1px;stroke-linecap:butt;stroke-linejoin:miter;stroke-opacity:1"
       d="m 585.70063,693.53375 99.88653,0.36381"
       id="path834"
       inkscape:connector-curvature="0" />
    <path
       style="fill:none;stroke:#ff0000;stroke-width:1px;stroke-linecap:butt;stroke-linejoin:miter;stroke-opacity:1"
       d="m 69.569245,305.1475 -1.2e-5,102.93463"
       id="path839"
       inkscape:connector-curvature="0" />
    <path
       style="fill:none;stroke:#000000;stroke-width:1px;stroke-linecap:butt;stroke-linejoin:miter;stroke-opacity:1"
       d="m 897.06896,694.8489 1e-5,-102.95755"
       id="path841"
       inkscape:connector-curvature="0" />
    <path
       style="fill:none;stroke:#000000;stroke-width:1px;stroke-linecap:butt;stroke-linejoin:miter;stroke-opacity:1"
       d="m 386.63244,409.24069 99.88571,0.35768"
       id="path843"
       inkscape:connector-curvature="0" />
    <path
       style="fill:none;stroke:#000000;stroke-width:1px;stroke-linecap:butt;stroke-linejoin:miter;stroke-opacity:1"
       d="m 440.98824,486.86534 65.16105,-49.2313"
       id="path845"
       inkscape:connector-curvature="0" />
    <path
       style="fill:none;stroke:#000000;stroke-width:1px;stroke-linecap:butt;stroke-linejoin:miter;stroke-opacity:1"
       d="m 493.84949,562.35494 65.16085,-49.22388"
       id="path847"
       inkscape:connector-curvature="0" />
    <path
       style="fill:none;stroke:#000000;stroke-width:1px;stroke-linecap:butt;stroke-linejoin:miter;stroke-opacity:1"
       d="m 440.98824,486.86534 52.86125,75.4896"
       id="path849"
       inkscape:connector-curvature="0" />
    <path
       style="fill:none;stroke:#000000;stroke-width:1px;stroke-linecap:butt;stroke-linejoin:miter;stroke-opacity:1"
       d="m 506.14929,437.63404 52.86105,75.49702"
       id="path851"
       inkscape:connector-curvature="0" />
    <path
       style="fill:none;stroke:#000000;stroke-width:1px;stroke-linecap:butt;stroke-linejoin:miter;stroke-opacity:1"
       d="m 542.9944,409.80113 152.06278,0.54581"
       id="path853"
       inkscape:connector-curvature="0" />
    <path
       style="fill:none;stroke:#000000;stroke-width:1px;stroke-linecap:butt;stroke-linejoin:miter;stroke-opacity:1"
       d="M 678.43747,307.47493 542.9944,409.80113"
       id="path855"
       inkscape:connector-curvature="0" />
    <path
       style="fill:none;stroke:#000000;stroke-width:1px;stroke-linecap:butt;stroke-linejoin:miter;stroke-opacity:1"
       d="M 321.56438,692.51971 457.00437,590.19156"
       id="path857"
       inkscape:connector-curvature="0" />
    <path
       style="fill:none;stroke:#000000;stroke-width:1px;stroke-linecap:butt;stroke-linejoin:miter;stroke-opacity:1"
       d="m 304.9414,589.64579 152.06297,0.54577"
       id="path859"
       inkscape:connector-curvature="0" />
    <path
       style="fill:none;stroke:#000000;stroke-width:1px;stroke-linecap:butt;stroke-linejoin:miter;stroke-opacity:1"
       d="M 414.29758,306.46063 486.5181,409.59837"
       id="path861"
       inkscape:connector-curvature="0" />
    <path
       style="fill:none;stroke:#000000;stroke-width:1px;stroke-linecap:butt;stroke-linejoin:miter;stroke-opacity:1"
       d="m 314.41504,306.10994 72.2174,103.13075"
       id="path863"
       inkscape:connector-curvature="0" />
    <path
       style="fill:none;stroke:#000000;stroke-width:1px;stroke-linecap:butt;stroke-linejoin:miter;stroke-opacity:1"
       d="m 513.4843,590.39434 99.87818,0.3614"
       id="path865"
       inkscape:connector-curvature="0" />
    <path
       style="fill:none;stroke:#000000;stroke-width:1px;stroke-linecap:butt;stroke-linejoin:miter;stroke-opacity:1"
       d="M 685.58716,693.89756 613.36248,590.75574"
       id="path867"
       inkscape:connector-curvature="0" />
    <path
       style="fill:none;stroke:#000000;stroke-width:1px;stroke-linecap:butt;stroke-linejoin:miter;stroke-opacity:1"
       d="M 585.70063,693.53375 513.4843,590.39434"
       id="path869"
       inkscape:connector-curvature="0" />
    <path
       style="fill:none;stroke:#000000;stroke-width:1px;stroke-linecap:butt;stroke-linejoin:miter;stroke-opacity:1"
       d="M 889.17973,178.92219 V 281.86674"
       id="path881"
       inkscape:connector-curvature="0" />
    <path
       style="fill:none;stroke:#000000;stroke-width:1px;stroke-linecap:butt;stroke-linejoin:miter;stroke-opacity:1"
       d="M 842.16258,410.87423 V 308.0592"
       id="path883"
       inkscape:connector-curvature="0" />
    <path
       style="fill:none;stroke:#000000;stroke-width:1px;stroke-linecap:butt;stroke-linejoin:miter;stroke-opacity:1"
       d="M 157.83598,589.11848 V 691.93359"
       id="path885"
       inkscape:connector-curvature="0" />
    <path
       style="fill:none;stroke:#000000;stroke-width:1.95318353px;stroke-linecap:butt;stroke-linejoin:miter;stroke-opacity:1"
       d="M 2.9231389,875.49498 996.96194,124.49834"
       id="path854"
       inkscape:connector-curvature="0" />
  </g>
</svg>
