{
    "accessors" : [
        {
            "bufferView" : 0,
            "componentType" : 5123,
            "count" : 2892,
            "max" : [
                616
            ],
            "min" : [
                0
            ],
            "type" : "SCALAR"
        },
        {
            "bufferView" : 1,
            "componentType" : 5126,
            "count" : 617,
            "max" : [
                0.07764160633087158,
                0.046160317957401276,
                0.05160149559378624
            ],
            "min" : [
                -0.07758674770593643,
                -0.05079729110002518,
                -0.04543205350637436
            ],
            "type" : "VEC3"
        },
        {
            "bufferView" : 2,
            "componentType" : 5126,
            "count" : 617,
            "max" : [
                0.9926450252532959,
                1.0,
                0.9164708256721497
            ],
            "min" : [
                -0.9921262264251709,
                -0.9997664093971252,
                -0.9135410785675049
            ],
            "type" : "VEC3"
        },
        {
            "bufferView" : 3,
            "componentType" : 5126,
            "count" : 617,
            "max" : [
                1.0,
                0.9966942071914673,
                0.6976854205131531,
                -1.0
            ],
            "min" : [
                -0.9555577635765076,
                -0.7569471001625061,
                -0.6947208642959595,
                -1.0
            ],
            "type" : "VEC4"
        },
        {
            "bufferView" : 4,
            "componentType" : 5126,
            "count" : 617,
            "max" : [
                1.0,
                1.0
            ],
            "min" : [
                0.0,
                0.0
            ],
            "type" : "VEC2"
        },
        {
            "bufferView" : 5,
            "componentType" : 5121,
            "count" : 36,
            "max" : [
                21
            ],
            "min" : [
                0
            ],
            "type" : "SCALAR"
        },
        {
            "bufferView" : 6,
            "componentType" : 5126,
            "count" : 22,
            "max" : [
                0.04113399237394333,
                0.004089041613042355,
                0.05531516671180725
            ],
            "min" : [
                -0.04113399237394333,
                -0.004089041613042355,
                -0.05531516671180725
            ],
            "type" : "VEC3"
        },
        {
            "bufferView" : 7,
            "componentType" : 5126,
            "count" : 22,
            "max" : [
                0.5809200406074524,
                0.7070833444595337,
                0.8139607310295105
            ],
            "min" : [
                -0.5809200406074524,
                -0.7070833444595337,
                -0.8139607310295105
            ],
            "type" : "VEC3"
        },
        {
            "bufferView" : 8,
            "componentType" : 5126,
            "count" : 22,
            "max" : [
                1.0,
                1.0093837772728875e-05,
                0.8139668107032776,
                -1.0
            ],
            "min" : [
                0.5809115171432495,
                -1.0093837772728875e-05,
                -0.0,
                -1.0
            ],
            "type" : "VEC4"
        },
        {
            "bufferView" : 9,
            "componentType" : 5126,
            "count" : 22,
            "max" : [
                1.0,
                1.0
            ],
            "min" : [
                0.0,
                0.0
            ],
            "type" : "VEC2"
        }
    ],
    "asset" : {
        "generator" : "Khronos Blender glTF 2.0 exporter",
        "version" : "2.0"
    },
    "bufferViews" : [
        {
            "buffer" : 0,
            "byteLength" : 5784,
            "byteOffset" : 0,
            "target" : 34963
        },
        {
            "buffer" : 0,
            "byteLength" : 7404,
            "byteOffset" : 5784,
            "target" : 34962
        },
        {
            "buffer" : 0,
            "byteLength" : 7404,
            "byteOffset" : 13188,
            "target" : 34962
        },
        {
            "buffer" : 0,
            "byteLength" : 9872,
            "byteOffset" : 20592,
            "target" : 34962
        },
        {
            "buffer" : 0,
            "byteLength" : 4936,
            "byteOffset" : 30464,
            "target" : 34962
        },
        {
            "buffer" : 0,
            "byteLength" : 36,
            "byteOffset" : 35400,
            "target" : 34963
        },
        {
            "buffer" : 0,
            "byteLength" : 264,
            "byteOffset" : 35436,
            "target" : 34962
        },
        {
            "buffer" : 0,
            "byteLength" : 264,
            "byteOffset" : 35700,
            "target" : 34962
        },
        {
            "buffer" : 0,
            "byteLength" : 352,
            "byteOffset" : 35964,
            "target" : 34962
        },
        {
            "buffer" : 0,
            "byteLength" : 176,
            "byteOffset" : 36316,
            "target" : 34962
        }
    ],
    "buffers" : [
        {
            "byteLength" : 36492,
            "uri" : "data:application/octet-stream;base64,"
        }
    ],
    "images" : [
        {
            "mimeType" : "image/jpeg",
            "name" : "wildtextures-generic-grey-concrete",
            "uri" : "data:image/jpeg;base64,"
        }
    ],
    "materials" : [
        {
            "name" : "object-material",
            "doubleSided": true,
            "pbrMetallicRoughness" : {
                "baseColorFactor" : [
                    0.10985234825390755,
                    0.10985234825390755,
                    0.10985234825390755,
                    1.0
                ],
                "baseColorTexture" : {
                    "index" : 0
                },
                "metallicFactor" : 0.0
            }
        }
    ],
    "meshes" : [
        {
            "name" : "curve-path",
            "primitives" : [
                {
                    "attributes" : {
                        "NORMAL" : 2,
                        "POSITION" : 1,
                        "TANGENT" : 3,
                        "TEXCOORD_0" : 4
                    },
                    "indices" : 0,
                    "material" : 0
                }
            ]
        },
        {
            "name" : "straith-path",
            "primitives" : [
                {
                    "attributes" : {
                        "NORMAL" : 7,
                        "POSITION" : 6,
                        "TANGENT" : 8,
                        "TEXCOORD_0" : 9
                    },
                    "indices" : 5,
                    "material" : 0
                }
            ]
        }
    ],
    "nodes" : [
        {
            "name" : "cap",
            "scale" : [
                0.004146219231188297,
                0.3918251693248749,
                0.004089041147381067
            ],
            "translation" : [
                1.75262451171875,
                6.44843864440918,
                4.916950225830078
            ]
        },
        {
            "mesh" : 0,
            "name" : "curve",
            "scale" : [
                100.18624114990234,
                100.18624114990234,
                100.18624114990234
            ]
        },
        {
            "mesh" : 1,
            "name" : "straight",
            "rotation" : [
                0.0,
                0.0,
                -0.3667154014110565,
                0.9303331971168518
            ],
            "scale" : [
                100.18624114990234,
                100.18624114990234,
                100.18624114990234
            ],
            "translation" : [
                0.0,
                0.3090952932834625,
                -1.492891328780388e-06
            ]
        }
    ],
    "samplers" : [
        {}
    ],
    "scene" : 0,
    "scenes" : [
        {
            "name" : "Scene",
            "nodes" : [
                0,
                1,
                2
            ]
        }
    ],
    "textures" : [
        {
            "sampler" : 0,
            "source" : 0
        }
    ]
}
